<svg width="44" height="27" viewBox="0 0 44 27" fill="none" xmlns="http://www.w3.org/2000/svg">
<path d="M12.6035 0.40625H17.877V18.125C17.877 19.7539 17.5137 21.1953 16.7871 22.4492C16.0723 23.6914 15.0586 24.6523 13.7461 25.332C12.4336 26.0117 10.9512 26.3516 9.29883 26.3516C6.5918 26.3516 4.48242 25.666 2.9707 24.2949C1.45898 22.9121 0.703125 20.9609 0.703125 18.4414H6.01172C6.01172 19.6953 6.27539 20.6211 6.80273 21.2188C7.33008 21.8164 8.16211 22.1152 9.29883 22.1152C10.3066 22.1152 11.1094 21.7695 11.707 21.0781C12.3047 20.3867 12.6035 19.4023 12.6035 18.125V0.40625Z" fill="white"/>
<path d="M43.207 26H37.9336L27.668 9.16016V26H22.3945V0.40625H27.668L37.9512 17.2812V0.40625H43.207V26Z" fill="#FB5B57"/>
</svg>
